<?xml version="1.0" encoding="UTF-8" standalone="no"?>
<svg
   xmlns:dc="http://purl.org/dc/elements/1.1/"
   xmlns:cc="http://creativecommons.org/ns#"
   xmlns:rdf="http://www.w3.org/1999/02/22-rdf-syntax-ns#"
   xmlns:svg="http://www.w3.org/2000/svg"
   xmlns="http://www.w3.org/2000/svg"
   xmlns:sodipodi="http://sodipodi.sourceforge.net/DTD/sodipodi-0.dtd"
   xmlns:inkscape="http://www.inkscape.org/namespaces/inkscape"
   width="220"
   height="190"
   viewBox="0 0 220 190"
   version="1.1"
   id="svg8"
   sodipodi:docname="hive-blog.svg"
   inkscape:version="0.92.5 (2060ec1f9f, 2020-04-08)">
  <metadata
     id="metadata14">
    <rdf:RDF>
      <cc:Work
         rdf:about="">
        <dc:format>image/svg+xml</dc:format>
        <dc:type
           rdf:resource="http://purl.org/dc/dcmitype/StillImage" />
        <dc:title></dc:title>
      </cc:Work>
    </rdf:RDF>
  </metadata>
  <defs
     id="defs12" />
  <sodipodi:namedview
     pagecolor="#ffffff"
     bordercolor="#666666"
     borderopacity="1"
     objecttolerance="10"
     gridtolerance="10"
     guidetolerance="10"
     inkscape:pageopacity="0"
     inkscape:pageshadow="2"
     inkscape:window-width="1358"
     inkscape:window-height="934"
     id="namedview10"
     showgrid="false"
     inkscape:zoom="1.2421053"
     inkscape:cx="112.41525"
     inkscape:cy="95"
     inkscape:window-x="0"
     inkscape:window-y="0"
     inkscape:window-maximized="0"
     inkscape:current-layer="svg8" />
  <g
     id="g6"
     style="fill:#000000">
    <path
       d="m 157.27262,107.26394 c 0.72637,0 1.18,0.78752 0.81612,1.41681 l -46.75035,80.84819 C 111.16981,189.82048 110.8588,190 110.52228,190 H 81.944381 c -0.726367,0 -1.179995,-0.78752 -0.816111,-1.41681 L 127.87862,107.735 c 0.16858,-0.29154 0.47959,-0.47106 0.81611,-0.47106 z m -27.7949,-23.173803 c -0.33651,0 -0.64753,-0.179515 -0.81611,-0.471055 L 81.12827,1.4168088 C 80.764386,0.78752151 81.218014,0 81.944381,0 h 28.577899 c 0.33652,0 0.64753,0.17951487 0.81611,0.4710549 l 47.53334,82.2022731 c 0.36388,0.629287 -0.0897,1.416809 -0.81611,1.416809 z"
       id="path2"
       inkscape:connector-curvature="0"
       style="fill:#000000" />
    <path
       d="M 135.12841,1.416352 C 134.76385,0.78706423 135.21893,0 135.94734,0 h 28.61861 c 0.33776,0 0.64989,0.17971418 0.81894,0.47151174 L 219.87301,94.52758 c 0.16932,0.292284 0.16932,0.652556 0,0.94484 l -54.48812,94.05607 C 165.21584,189.82029 164.90371,190 164.56595,190 h -28.61861 c -0.72841,0 -1.18349,-0.78706 -0.81893,-1.41635 L 189.34284,95 Z m -23.25819,93.10773 c 0.17223,0.29267 0.17309,0.654477 0.002,0.947956 L 57.125226,189.52811 c -0.36523,0.62746 -1.277385,0.62961 -1.645617,0.004 L 0.12978361,95.475918 c -0.17222938,-0.29267 -0.17309611,-0.654477 -0.002271,-0.947956 L 54.874774,0.47189426 c 0.36523,-0.62746669 1.277385,-0.62961739 1.645617,-0.00388 z"
       id="path4"
       inkscape:connector-curvature="0"
       style="fill:#000000" />
  </g>
</svg>
